<svg width="89" height="32" viewBox="0 0 89 32" fill="none" xmlns="http://www.w3.org/2000/svg">
<path d="M24.775 17.1025C24.1135 16.2367 23.1504 15.6516 22.0771 15.4636C23.0279 15.1855 23.87 14.6214 24.489 13.848C25.1094 13.0353 25.429 12.0327 25.3935 11.0109C25.3986 10.0901 25.1295 9.18856 24.6204 8.42121C24.09 7.62812 23.3369 7.00954 22.4559 6.64322C21.3865 6.19747 20.2361 5.97897 19.0777 6.00159H11.0613V25.4281H19.4333C20.6103 25.4569 21.7792 25.2273 22.8579 24.7556C23.7587 24.3676 24.527 23.7256 25.0688 22.908C25.591 22.0893 25.8599 21.1346 25.8418 20.1637C25.8532 19.0502 25.476 17.9677 24.775 17.1025Z" fill="#FF0058"/>
<path d="M4.87882 24.1749C3.39877 23.3547 2.16756 22.1502 1.3151 20.6885C0.433135 19.1763 -0.0211211 17.4528 0.000933403 15.7024C-0.0234672 13.9516 0.430952 12.2275 1.3151 10.7163C2.16872 9.26141 3.40016 8.0647 4.87882 7.25303C6.3866 6.41545 8.0861 5.98392 9.81082 6.00071C11.5385 5.98007 13.2414 6.41181 14.7506 7.25303C16.2228 8.06524 17.4466 9.26231 18.2911 10.7163C19.1669 12.2303 19.6158 13.9535 19.5898 15.7024C19.6134 17.451 19.1648 19.1736 18.2911 20.6885C17.4411 22.1408 16.2153 23.3372 14.7428 24.1517C13.2346 24.9883 11.5354 25.4198 9.81082 25.404C8.08817 25.4279 6.3888 25.0044 4.87882 24.1749Z" fill="#00B5FF"/>
<path d="M15.3919 24.1742C16.8718 23.36 18.1013 22.1572 18.9478 20.6955C19.8292 19.1693 20.2807 17.4329 20.2543 15.6707C20.2778 13.9187 19.8263 12.193 18.9478 10.6769C18.098 9.22243 16.8724 8.02351 15.3996 7.20594C14.1325 6.50348 12.7251 6.09156 11.2793 6H9.79504V25.4265H10.9237C12.4906 25.3651 14.0212 24.9361 15.3919 24.1742Z" fill="#0E0060"/>
<path d="M36.879 14.4122C36.2279 14.4122 35.6294 14.2609 35.0835 13.9584C34.5441 13.6558 34.1133 13.2349 33.7911 12.6955C33.4754 12.1496 33.3175 11.538 33.3175 10.8605C33.3175 10.1831 33.4754 9.57469 33.7911 9.03536C34.1133 8.49604 34.5441 8.0751 35.0835 7.77255C35.6294 7.47 36.2279 7.31873 36.879 7.31873C37.5302 7.31873 38.1254 7.47 38.6647 7.77255C39.2106 8.0751 39.6381 8.49604 39.9473 9.03536C40.263 9.57469 40.4208 10.1831 40.4208 10.8605C40.4208 11.538 40.263 12.1496 39.9473 12.6955C39.6316 13.2349 39.2041 13.6558 38.6647 13.9584C38.1254 14.2609 37.5302 14.4122 36.879 14.4122ZM36.879 12.8731C37.4315 12.8731 37.8722 12.689 38.201 12.3206C38.5365 11.9523 38.7042 11.4656 38.7042 10.8605C38.7042 10.2488 38.5365 9.76214 38.201 9.40039C37.8722 9.03207 37.4315 8.84791 36.879 8.84791C36.32 8.84791 35.8727 9.02878 35.5373 9.39053C35.2084 9.75227 35.044 10.2423 35.044 10.8605C35.044 11.4722 35.2084 11.9622 35.5373 12.3305C35.8727 12.6923 36.32 12.8731 36.879 12.8731Z" fill="black"/>
<path d="M46.6375 9.64704C46.6375 10.0482 46.5455 10.4166 46.3613 10.752C46.1771 11.0809 45.8943 11.3472 45.5128 11.5511C45.1314 11.755 44.6578 11.857 44.0922 11.857H43.0464V14.3431H41.3594V7.41738H44.0922C44.6447 7.41738 45.1116 7.51275 45.4931 7.70349C45.8746 7.89423 46.1607 8.15731 46.3514 8.49275C46.5422 8.82818 46.6375 9.21294 46.6375 9.64704ZM43.9639 10.5152C44.2862 10.5152 44.5263 10.4396 44.6841 10.2883C44.842 10.137 44.9209 9.92328 44.9209 9.64704C44.9209 9.3708 44.842 9.15704 44.6841 9.00576C44.5263 8.85449 44.2862 8.77885 43.9639 8.77885H43.0464V10.5152H43.9639Z" fill="black"/>
<path d="M49.2029 8.76899V10.1699H51.4621V11.4722H49.2029V12.9915H51.7581V14.3431H47.5158V7.41738H51.7581V8.76899H49.2029Z" fill="black"/>
<path d="M59.049 14.3431H57.362L54.5404 10.0713V14.3431H52.8533V7.41738H54.5404L57.362 11.709V7.41738H59.049V14.3431Z" fill="black"/>
<path d="M64.9573 7.41738C65.6873 7.41738 66.3253 7.56208 66.8712 7.85147C67.4171 8.14087 67.8381 8.54865 68.134 9.07482C68.4366 9.59442 68.5878 10.1962 68.5878 10.8803C68.5878 11.5577 68.4366 12.1595 68.134 12.6857C67.8381 13.2119 67.4138 13.6196 66.8613 13.909C66.3154 14.1984 65.6807 14.3431 64.9573 14.3431H62.3626V7.41738H64.9573ZM64.8487 12.883C65.4867 12.883 65.9833 12.7087 66.3385 12.3601C66.6936 12.0115 66.8712 11.5182 66.8712 10.8803C66.8712 10.2423 66.6936 9.74569 66.3385 9.39053C65.9833 9.03536 65.4867 8.85778 64.8487 8.85778H64.0496V12.883H64.8487Z" fill="black"/>
<path d="M73.6446 13.1198H71.0598L70.6455 14.3431H68.8795L71.3854 7.41738H73.3388L75.8447 14.3431H74.059L73.6446 13.1198ZM73.2106 11.8175L72.3522 9.282L71.5038 11.8175H73.2106Z" fill="black"/>
<path d="M81.1949 7.41738V8.76899H79.3599V14.3431H77.6729V8.76899H75.8378V7.41738H81.1949Z" fill="black"/>
<path d="M85.9583 13.1198H83.3735L82.9591 14.3431H81.1932L83.6991 7.41738H85.6525L88.1584 14.3431H86.3727L85.9583 13.1198ZM85.5242 11.8175L84.6659 9.282L83.8174 11.8175H85.5242Z" fill="black"/>
<path d="M37.1947 20.8013C37.4447 20.8408 37.6716 20.9427 37.8755 21.1072C38.0859 21.2716 38.2504 21.4755 38.3688 21.7188C38.4937 21.9622 38.5562 22.222 38.5562 22.4982C38.5562 22.8468 38.4674 23.1625 38.2898 23.4453C38.1122 23.7216 37.8524 23.9419 37.5104 24.1063C37.175 24.2642 36.7771 24.3431 36.3167 24.3431H33.7516V17.4667H36.218C36.685 17.4667 37.0829 17.5456 37.4118 17.7035C37.7406 17.8548 37.9873 18.0619 38.1517 18.325C38.3161 18.5881 38.3984 18.8841 38.3984 19.2129C38.3984 19.6207 38.2865 19.9595 38.0629 20.2291C37.8459 20.4922 37.5565 20.6829 37.1947 20.8013ZM34.6494 20.4363H36.1588C36.5798 20.4363 36.9053 20.3376 37.1355 20.1403C37.3657 19.943 37.4808 19.6701 37.4808 19.3215C37.4808 18.9729 37.3657 18.6999 37.1355 18.5026C36.9053 18.3053 36.5732 18.2066 36.1391 18.2066H34.6494V20.4363ZM36.2378 23.6032C36.685 23.6032 37.0336 23.498 37.2835 23.2875C37.5335 23.077 37.6584 22.7843 37.6584 22.4094C37.6584 22.028 37.5269 21.7287 37.2638 21.5117C37.0007 21.288 36.6488 21.1762 36.2082 21.1762H34.6494V23.6032H36.2378Z" fill="black"/>
<path d="M43.8667 22.8139H40.8676L40.3151 24.3431H39.368L41.8541 17.5062H42.89L45.3663 24.3431H44.4192L43.8667 22.8139ZM43.6102 22.0839L42.3671 18.6111L41.1241 22.0839H43.6102Z" fill="black"/>
<path d="M51.2643 17.4667L49.0248 21.7484V24.3431H48.127V21.7484L45.8776 17.4667H46.8741L48.571 20.9493L50.2679 17.4667H51.2643Z" fill="black"/>
<path d="M53.1091 18.1968V20.4955H55.615V21.2354H53.1091V23.6032H55.9109V24.3431H52.2113V17.4568H55.9109V18.1968H53.1091Z" fill="black"/>
<path d="M60.8901 24.3431L59.2524 21.5314H58.1672V24.3431H57.2694V17.4667H59.4892C60.0088 17.4667 60.4462 17.5555 60.8013 17.7331C61.1631 17.9107 61.4327 18.1507 61.6103 18.4533C61.7879 18.7558 61.8767 19.1011 61.8767 19.4892C61.8767 19.9627 61.7386 20.3804 61.4623 20.7421C61.1927 21.1039 60.7849 21.3439 60.239 21.4623L61.9655 24.3431H60.8901ZM58.1672 20.8112H59.4892C59.9759 20.8112 60.3409 20.6928 60.5843 20.456C60.8276 20.2127 60.9493 19.8904 60.9493 19.4892C60.9493 19.0814 60.8276 18.7657 60.5843 18.5421C60.3475 18.3185 59.9825 18.2066 59.4892 18.2066H58.1672V20.8112Z" fill="black"/>
<path d="M68.6781 24.3431H67.7803L64.1695 18.8676V24.3431H63.2717V17.4568H64.1695L67.7803 22.9225V17.4568H68.6781V24.3431Z" fill="black"/>
</svg>
